<?xml version="1.0" encoding="utf-8"?>
<!-- Generator: Adobe Illustrator 14.0.0, SVG Export Plug-In . SVG Version: 6.00 Build 43363)  -->
<!DOCTYPE svg PUBLIC "-//W3C//DTD SVG 1.1//EN" "http://www.w3.org/Graphics/SVG/1.1/DTD/svg11.dtd">
<svg version="1.1" id="Layer_1_xA0_Image_1_" xmlns="http://www.w3.org/2000/svg" xmlns:xlink="http://www.w3.org/1999/xlink"
	 x="0px" y="0px" width="90px" height="90px" viewBox="0 0 90 90" enable-background="new 0 0 90 90" xml:space="preserve">
<g>
	<g>
		<path fill-rule="evenodd" clip-rule="evenodd" fill="#1F090C" d="M68.417,13.365c0.571,3.495-1.558,8.885-2.587,14.228
			C64.979,22.858,67.444,17.712,68.417,13.365z"/>
		<path fill-rule="evenodd" clip-rule="evenodd" fill="#DD0709" d="M14.956,28.886c2.073,1.52,1.886,5.299,4.743,6.036
			c0.054,1.957-3.45,2.051-4.312,1.724C15.721,33.582,14.735,31.837,14.956,28.886z"/>
		<path fill-rule="evenodd" clip-rule="evenodd" fill="#DD0709" d="M31.339,44.407c0.431,0,0.862,0,1.293,0
			c0.306,3.182-0.112,5.729,0.431,9.485c-1.893-1.412-0.189-6.422-3.018-6.898C30.313,45.967,31.925,46.286,31.339,44.407z"/>
		<path fill-rule="evenodd" clip-rule="evenodd" fill="#691318" d="M17.112,60.359c2.07,1.072,1.284,3.758,1.725,5.604
			c0.661-1.565,2.323,0.739,2.156,2.587c-1.877-0.279-2.368-1.943-4.312-2.155C15.731,64.169,16.978,61.381,17.112,60.359z"/>
		<path fill-rule="evenodd" clip-rule="evenodd" fill="#DD0709" d="M43.411,62.515c4.132,0.075,8.28-0.021,10.778-0.431
			c-5.208,0.619-15.027,4.9-18.539,0.431c1.852-1.26,4.27,0.604,6.898,0C42.836,62.515,43.124,62.515,43.411,62.515z"/>
		<path fill-rule="evenodd" clip-rule="evenodd" fill="#DD0709" d="M70.573,9.485c-0.367,0.08-0.407-0.168-0.432-0.431
			c-4.277,6.501-5.279,16.277-6.036,26.3c1.386,0.379,0.591-1.421,1.725-1.293c-0.228,0.347-0.449,0.7-0.431,1.293
			c6.375,0.235,13.965-0.744,17.677,2.155c-2.361-1.335-3.965,1.378-5.174,2.587c-3.385-4.58-14.669-4.963-20.694-2.156
			c-0.605-1.097,0.251-4.349-2.587-5.173c0.581-2.144,5.272-3.822,6.467-2.587c3.49-3.427,4.016-12.054,4.312-17.246
			c-2.619-0.463-2.938,1.374-5.174,1.293c-3.631-1.738-2.306-7.483-0.862-9.054C64.331,3.751,71.271,5.332,70.573,9.485z"/>
		<path fill-rule="evenodd" clip-rule="evenodd" fill="#1F090C" d="M9.783,31.042c-2.16-5.744-2.755-13.053-3.449-20.264
			c0.304-2.891-0.443-4.73-0.431-7.329c2.412,0.894,1.342,5.269,3.449,6.467c1.037-0.268-0.882-1.801,0.862-1.725
			c0.237,2.637,1.908,3.841,2.155,6.467c1.399-0.812-0.048-1.969,0.862-3.449c0.862,0,1.725,0,2.587,0
			c2.429,5.763,3.9,12.483,5.174,19.401c1.144,0.137-0.403-2.416,1.293-1.725c-0.074,2.453,1.569,3.294,1.725,6.467
			c-1.741-0.591-1.527,0.772-2.156,1.293c-2.494-2.551-6.609-6.784-7.33-12.503c-1.361,3.811,0.884,7.734,0.431,12.072
			c-3.026-2.784-1.854-8.844-4.311-12.935c-1.484,4.52,1.59,11.514,3.449,15.521c1.028-1.89,4.573-1.926,6.898-1.293
			c-1.185,2.265-6.334,0.564-6.036,4.312C12.019,39.44,11.461,34.681,9.783,31.042z"/>
		<path fill-rule="evenodd" clip-rule="evenodd" fill="#691318" d="M9.783,31.042c1.679,3.639,2.236,8.398,5.173,10.778
			c-0.298-3.748,4.852-2.046,6.036-4.312c-2.326-0.633-5.87-0.597-6.898,1.293c-1.859-4.007-4.933-11.001-3.449-15.521
			c2.457,4.091,1.285,10.15,4.311,12.935c0.453-4.338-1.792-8.262-0.431-12.072c0.72,5.719,4.836,9.952,7.33,12.503
			c0.629-0.521,0.415-1.884,2.156-1.293c-0.155-3.173-1.799-4.015-1.725-6.467c-1.697-0.691-0.15,1.862-1.293,1.725
			c-1.274-6.918-2.745-13.638-5.174-19.401c-0.862,0-1.725,0-2.587,0c-0.91,1.48,0.537,2.638-0.862,3.449
			c-0.248-2.626-1.918-3.83-2.155-6.467c-1.745-0.077,0.175,1.457-0.862,1.725C7.244,8.718,8.314,4.343,5.902,3.449
			C5.89,6.048,6.638,7.888,6.333,10.778c-0.493-2.774-1.536-7.223,0-9.485c0.485,2.749,1.61,3.822,3.449,4.312
			c0.226,2.073,0.983,3.616,1.725,5.173c0.964-0.186,0.174-2.125,0.431-3.018c2.107,0.764,2.129,1.687,4.311,1.725
			c1.26,9.684,7.543,18.871,8.192,26.299c0.133,0.585,1.079,0.358,1.725,0.432c-0.209,0.981-0.855,2.202,0,3.018
			c6.212-3.733,9.728,1.72,8.623,9.054c1.576-1.863,0.502-5.136,0.431-7.76c1.612,2.003,2.212,6.755,2.587,8.623
			c6.553,7.084,20.769,4.498,28.023,1.294c1.525-0.231,2.222,0.365,2.587,1.293c0.613-0.824,1.332-1.543,2.156-2.155
			c0.078-0.94-0.354-1.372-1.294-1.294c0.992-1.535,3.278-0.105,4.312-0.862c-4.843-2.662-16.059-3.598-22.851-4.311
			c1.777-9.94-0.667-22.339,0-35.785c0.68-0.758,2.31-0.565,3.019-1.293c1.802-0.354,3.47-0.841,5.604-0.862
			c-1.443,1.571-2.769,7.316,0.862,9.054c2.236,0.08,2.555-1.757,5.174-1.293c-0.296,5.192-0.821,13.818-4.312,17.246
			c-1.194-1.235-5.886,0.443-6.467,2.587c2.838,0.824,1.981,4.076,2.587,5.173c6.025-2.807,17.31-2.424,20.694,2.156
			c1.209-1.209,2.813-3.922,5.174-2.587c4.29,2.685-0.489,4.991-1.294,8.191c-2.616,10.41,1.475,28.448-1.293,39.234
			c-1.006,0-2.012,0-3.019,0c0-0.145,0-0.288,0-0.432c1.007,0,2.013,0,3.019,0c-0.103-14.082,0.939-25.579,0-37.509
			c-2.635,3.281-0.886,7.35-0.432,13.796c-11.349,3.537-24.026,1.513-38.802,4.312c1.131,2.296,1.539,3.772,0,6.036
			c13.043-0.528,23.64-3.092,34.06-2.155c0,0.287,0,0.574,0,0.862c-6.292-0.376-14.326,1.177-21.126,1.725
			c-1.321,0.834,0.642,4.952-1.293,5.173c-2.171-0.129,0.505-5.104-1.725-5.173c-4.661,1.087-10.342,1.155-15.521,1.724
			c-0.273,1.452,0.555,4.005-0.431,4.743c0.283-2.16-1.093-5.979,2.156-5.174c1.547-2.6,0.441-8.268-2.587-9.916
			c-1.19,2.923-0.105,7.284,0.862,9.485c-1.01,0.857-2.743,0.993-4.743,0.861c-1.09-9.747,0.768-27.334-6.036-34.06
			c-2.204,0.957-0.876,3.779,0.431,4.743c-0.879,1.264-2.256-0.584-3.018-0.862c-0.592,0.983,1.111,1.621,0,1.725
			c-1.693-0.462-4.218-0.093-5.605-0.862c-5.628,7.6,0.325,21.32,0,28.024c-1.595-7.403-5.017-20.418-0.862-28.024
			C12.475,40.996,10.914,36.234,9.783,31.042z M43.411,62.515c11.898-2.081,26.165,0.864,34.922-4.312
			c-0.94,0.079-1.371-0.353-1.293-1.293c0.994-0.855,0.479,0.108,1.293,0.432c-0.867-5.601-2.062-10.872-2.155-17.246
			c-6.522-4.362-16.921,1.067-21.988-2.587c0.336-1.101,2.144-0.731,2.156-2.155c-1.146-1.153-3.021-1.579-3.449-3.449
			c1.082-0.933,5.513-1.95,2.587-3.018c7.977,0.791,8.234-6.136,8.191-13.365c-2.381-0.064-5.97-0.09-7.761-0.862
			c0.59-2.74,0.455-5.211-0.431-7.33c-1.482-0.188-2.417,0.17-3.449,0.431c-2.092,9.915,0.71,21.413,0.862,32.767
			c-1.045-1.051-1.142,1.046-1.294,2.156c8.715,1.489,19.628,0.78,24.575,6.036c-3.356,3.483-0.026,6.802-1.293,10.347
			c-11.067,0.931-24.297,1.531-36.216,0.432c1.785-0.575,6.597,0.233,8.623-1.294c-0.552-1.809-2.09-0.389-2.587-1.724
			c0.048-0.814,1.425-0.3,1.293-1.294c-4.365-1.384-6.705-4.792-9.485-7.761c-0.711,4.548-0.847,9.669-0.431,14.228
			c2.235,0.208,4.699,0.188,6.467,0.862c-2.628,0.604-5.046-1.26-6.898,0c3.511,4.47,13.331,0.188,18.539-0.431
			C51.691,62.494,47.543,62.59,43.411,62.515z M15.387,36.646c0.861,0.327,4.366,0.233,4.312-1.724
			c-2.856-0.737-2.67-4.516-4.743-6.036C14.735,31.837,15.721,33.582,15.387,36.646z M30.046,46.994
			c2.829,0.477,1.125,5.486,3.018,6.898c-0.543-3.756-0.125-6.304-0.431-9.485c-0.431,0-0.862,0-1.293,0
			C31.925,46.286,30.313,45.967,30.046,46.994z M56.346,56.048c0.289-0.398,2.509,0.379,3.018-0.862
			c0.944,0.897-0.378,1.394,0.432,2.156c5.1,1.739,7.867-3.303,11.641,0.431c2.379-2.41-1.464-3.302-2.156-5.174
			c-3.847,0.089-5.197,1.123-7.329,2.156c-0.897-0.253-1.394-0.906-2.155-1.294C59.443,54.852,54.911,54.304,56.346,56.048z"/>
		<path fill-rule="evenodd" clip-rule="evenodd" fill="#691318" d="M70.573,9.485c-1.873,7.9-2.829,16.716-4.743,24.575
			c-1.134-0.128-0.339,1.672-1.725,1.293c0.757-10.022,1.759-19.799,6.036-26.3C70.166,9.317,70.206,9.564,70.573,9.485z
			 M65.83,27.593c1.029-5.342,3.158-10.733,2.587-14.228C67.444,17.712,64.979,22.858,65.83,27.593z"/>
		<path fill-rule="evenodd" clip-rule="evenodd" fill="#1F090C" d="M16.681,72c0.325-6.704-5.628-20.424,0-28.024
			c1.387,0.769,3.912,0.4,5.605,0.862c1.111-0.104-0.592-0.742,0-1.725c0.762,0.278,2.139,2.126,3.018,0.862
			c-1.308-0.963-2.635-3.786-0.431-4.743c6.803,6.726,4.945,24.313,6.036,34.06c2,0.132,3.732-0.004,4.743-0.861
			c-0.967-2.201-2.052-6.563-0.862-9.485c3.028,1.648,4.134,7.316,2.587,9.916c-3.249-0.806-1.873,3.014-2.156,5.174
			c0.419,4.73-0.951,7.672-0.862,12.071c-1.437,0-2.874,0-4.312,0c-0.394-5.498-0.784-11-0.862-16.814
			c-2.348-1.532-5.413-2.347-8.623-3.018c-0.754,4.273-0.377,11.005-5.605,9.485C15.123,76.765,15.997,74.479,16.681,72z
			 M16.681,66.396c1.943,0.212,2.435,1.876,4.312,2.155c0.167-1.848-1.495-4.152-2.156-2.587c-0.441-1.847,0.346-4.532-1.725-5.604
			C16.978,61.381,15.731,64.169,16.681,66.396z"/>
		<path fill-rule="evenodd" clip-rule="evenodd" fill="#1F090C" d="M59.795,53.461c0.762,0.388,1.258,1.041,2.155,1.294
			c2.132-1.033,3.482-2.067,7.329-2.156c0.692,1.872,4.535,2.764,2.156,5.174c-3.773-3.733-6.541,1.309-11.641-0.431
			c-0.81-0.763,0.513-1.259-0.432-2.156c-0.509,1.241-2.729,0.464-3.018,0.862C54.911,54.304,59.443,54.852,59.795,53.461z"/>
		<path fill-rule="evenodd" clip-rule="evenodd" fill="#1F090C" d="M77.471,84.503c-2.258-3.347-1.588-9.621-2.155-14.658
			c0-0.288,0-0.575,0-0.862c-10.42-0.937-21.017,1.627-34.06,2.155c1.539-2.264,1.131-3.74,0-6.036
			c14.775-2.799,27.453-0.774,38.802-4.312c-0.454-6.446-2.203-10.515,0.432-13.796c0.939,11.93-0.103,23.427,0,37.509
			C79.483,84.503,78.478,84.503,77.471,84.503z"/>
		<path fill-rule="evenodd" clip-rule="evenodd" fill="#1F090C" d="M42.549,62.515c-1.768-0.675-4.232-0.654-6.467-0.862
			c-0.416-4.559-0.28-9.68,0.431-14.228c2.78,2.969,5.12,6.377,9.485,7.761c0.132,0.994-1.246,0.479-1.293,1.294
			c0.497,1.335,2.036-0.085,2.587,1.724c-2.026,1.527-6.838,0.719-8.623,1.294c11.919,1.1,25.148,0.499,36.216-0.432
			c1.267-3.545-2.063-6.863,1.293-10.347c-4.947-5.256-15.86-4.547-24.575-6.036c0.152-1.109,0.249-3.207,1.294-2.156
			c-0.152-11.354-2.954-22.852-0.862-32.767c1.032-0.261,1.967-0.62,3.449-0.431c0.886,2.119,1.021,4.59,0.431,7.33
			c1.791,0.772,5.38,0.798,7.761,0.862c0.043,7.229-0.215,14.156-8.191,13.365c2.926,1.068-1.505,2.085-2.587,3.018
			c0.429,1.871,2.303,2.296,3.449,3.449c-0.013,1.424-1.82,1.054-2.156,2.155c5.067,3.654,15.466-1.775,21.988,2.587
			c0.094,6.374,1.288,11.646,2.155,17.246c-0.814-0.323-0.299-1.287-1.293-0.432c-0.078,0.94,0.353,1.372,1.293,1.293
			c-8.757,5.176-23.023,2.23-34.922,4.312C43.124,62.515,42.836,62.515,42.549,62.515z"/>
		<path fill-rule="evenodd" clip-rule="evenodd" fill="#DD0709" d="M53.759,6.036C53.05,6.764,51.42,6.571,50.74,7.329
			c-0.667,13.445,1.777,25.845,0,35.785c6.792,0.713,18.008,1.649,22.851,4.311c-1.033,0.757-3.319-0.673-4.312,0.862
			c0.94-0.078,1.372,0.354,1.294,1.294c-0.824,0.612-1.543,1.331-2.156,2.155c-0.365-0.928-1.062-1.524-2.587-1.293
			c-7.255,3.204-21.471,5.79-28.023-1.294c-0.375-1.867-0.975-6.62-2.587-8.623c0.071,2.624,1.145,5.897-0.431,7.76
			c1.105-7.334-2.411-12.787-8.623-9.054c-0.855-0.815-0.209-2.037,0-3.018c-0.646-0.074-1.591,0.154-1.725-0.432
			c-0.648-7.429-6.932-16.615-8.192-26.299c-2.182-0.038-2.204-0.96-4.311-1.725c-0.257,0.894,0.533,2.833-0.431,3.018
			c-0.742-1.558-1.499-3.1-1.725-5.173c-1.839-0.49-2.964-1.563-3.449-4.312c1.868-2.965,4.402,0.977,7.329,1.725
			C24.355,5.75,41.123,5.2,53.759,6.036z"/>
	</g>
</g>
</svg>
